<svg xmlns="http://www.w3.org/2000/svg" viewBox="0 0 64 64">
  <defs>
    <linearGradient id="g" x1="0" y1="0" x2="64" y2="64" gradientUnits="userSpaceOnUse">
      <stop stop-color="#FA3E0A"/>
      <stop offset=".55" stop-color="#FF7A1A"/>
      <stop offset="1" stop-color="#FFB018"/>
    </linearGradient>
  </defs>
  <rect width="64" height="64" rx="16" fill="url(#g)"/>
  <g fill="#ffffff" fill-rule="evenodd" transform="translate(11.2 7.68) scale(0.074146)">
    <path d="M85 408 L90 396 L100 391 L193 391 L195 389 L216 341 L267 240 L255 222 L247 204 L246 172 L254 150 L266 134 L282 122 L298 116 L295 75 L295 23 L302 12 L311 8 L327 9 L340 22 L341 64 L337 114 L339 117 L357 124 L376 140 L385 155 L390 173 L389 203 L381 223 L370 237 L370 240 L443 389 L447 391 L539 392 L546 395 L553 406 L552 417 L548 424 L543 427 L464 427 L462 429 L523 549 L526 564 L526 584 L547 631 L547 639 L540 647 L532 647 L527 643 L506 598 L485 580 L413 427 L341 427 L339 429 L337 464 L332 471 L325 474 L312 474 L302 468 L298 456 L297 428 L223 428 L153 578 L146 587 L128 598 L109 644 L105 648 L94 647 L90 643 L90 631 L109 585 L109 559 L112 549 L154 471 L174 428 L98 427 L88 421 L85 409 Z M310 259 L307 259 L303 263 L263 343 L243 387 L246 391 L297 390 L298 363 L300 355 L303 350 L315 346 L326 347 L336 353 L339 359 L341 390 L395 390 L395 387 L384 368 L333 261 L330 259 L311 259 Z M285 178 A33 33 0 1 0 351 178 A33 33 0 1 0 285 178 Z M8 149 L12 135 L21 120 L32 110 L52 101 L201 101 L250 99 L249 103 L227 130 L219 146 L213 167 L211 190 L51 190 L51 527 L84 529 L84 535 L78 547 L72 571 L30 569 L16 558 L11 550 L8 539 Z M384 100 L500 100 L517 104 L531 112 L545 128 L552 146 L553 355 L509 354 L508 190 L424 189 L424 167 L418 146 L405 123 L386 105 Z"/>
  </g>
</svg>
